<?xml version="1.0" standalone="no"?>
<!DOCTYPE svg PUBLIC "-//W3C//DTD SVG 20010904//EN"
 "http://www.w3.org/TR/2001/REC-SVG-20010904/DTD/svg10.dtd">
<svg version="1.0" xmlns="http://www.w3.org/2000/svg"
 width="512.000000pt" height="512.000000pt" viewBox="0 0 512.000000 512.000000"
 preserveAspectRatio="xMidYMid meet">
<metadata>
Created by potrace 1.14, written by Peter Selinger 2001-2017
</metadata>
<g transform="translate(0.000000,512.000000) scale(0.100000,-0.100000)"
fill="#000000" stroke="none">
<path d="M200 5073 c-71 -24 -112 -62 -138 -128 -9 -23 -12 -573 -10 -2397 l3
-2366 30 -43 c17 -23 48 -52 70 -63 l40 -21 2376 0 2376 0 41 29 c23 15 52 45
64 65 l23 36 0 2381 0 2381 -29 41 c-16 23 -45 52 -65 65 l-36 22 -2365 2
c-1301 1 -2372 -1 -2380 -4z"/>
</g>
</svg>
